# xmcd
#
# Track frame offsets: 
#        150
#        9002
#        27522
#        39542
#        58630
#        79312
#        91275
#        102720
#        119800
#        139657
#        153425
#
# Disc length: 2498 seconds
#
# Revision: 5
# Processed by: cddbd v1.5.2PL0 Copyright (c) Steve Scherf et al.
# Submitted via: ExactAudioCopy v1.0b3
#
DISCID=8f09c00b
DTITLE=Various Artist - Mardi Gras In New Orleans Vol. II
DYEAR=1989
DGENRE=R&B
TTITLE0=Iko Iko - Dixie Cups
TTITLE1=Hey Pocky Away - The Meters
TTITLE2=Mardi Gras Mambo - The Meters
TTITLE3=They All Ask For You - The Meters
TTITLE4=Mardi Gras In New Orleans - Olympia Brass Band
TTITLE5=Dat's Mardi Gras - Jake The Snake
TTITLE6=Jockomo - Sugarboy Crawford
TTITLE7=New Second Line - Olympia Brass Band
TTITLE8=Wade In The River - Olympia Brass Band
TTITLE9=If Ever I Cease To Love - A.J. Loria
TTITLE10=Mardi Gras Medley - Mardi Gras Big Shots
EXTD=
EXTT0=
EXTT1=
EXTT2=
EXTT3=
EXTT4=
EXTT5=
EXTT6=
EXTT7=
EXTT8=
EXTT9=
EXTT10=
PLAYORDER=
